G04*
G04 #@! TF.GenerationSoftware,Altium Limited,CircuitStudio,1.5.2 (30)*
G04*
G04 Layer_Physical_Order=1*
G04 Layer_Color=255*
%FSLAX24Y24*%
%MOIN*%
G70*
G01*
G75*
%ADD10R,0.0945X0.0295*%
%ADD11C,0.0118*%
%ADD12C,0.0295*%
%ADD13C,0.0079*%
%ADD14C,0.0689*%
%ADD15C,0.0984*%
%ADD16C,0.0827*%
%ADD17C,0.0276*%
G36*
X7673Y201D02*
X201D01*
Y6886D01*
X7673D01*
Y201D01*
D02*
G37*
%LPC*%
G36*
X3711Y5997D02*
X1280D01*
X1226Y5986D01*
X1180Y5956D01*
X422Y5198D01*
X392Y5152D01*
X381Y5098D01*
Y4154D01*
X392Y4100D01*
X422Y4054D01*
X533Y3944D01*
X578Y3914D01*
X591Y3911D01*
X650Y3817D01*
Y3770D01*
D01*
X650D01*
X650Y3770D01*
Y3388D01*
X650Y3317D01*
Y3302D01*
X632Y3184D01*
X578Y3173D01*
X533Y3143D01*
X412Y3023D01*
X382Y2977D01*
X371Y2923D01*
Y1850D01*
X382Y1797D01*
X412Y1751D01*
X1308Y855D01*
X1354Y825D01*
X1407Y814D01*
X6319D01*
X6373Y825D01*
X6418Y855D01*
X6790Y1227D01*
X6821Y1273D01*
X6831Y1327D01*
Y1893D01*
X6904Y1924D01*
X6993Y1991D01*
X7061Y2080D01*
X7103Y2183D01*
X7118Y2293D01*
X7103Y2404D01*
X7061Y2507D01*
X6993Y2595D01*
X6904Y2663D01*
X6801Y2706D01*
X6691Y2720D01*
X6580Y2706D01*
X6478Y2663D01*
X6389Y2595D01*
X6321Y2507D01*
X6279Y2404D01*
X6264Y2293D01*
X6279Y2183D01*
X6321Y2080D01*
X6389Y1991D01*
X6478Y1924D01*
X6550Y1893D01*
Y1385D01*
X6261Y1095D01*
X1466D01*
X652Y1909D01*
Y2233D01*
X736Y2317D01*
X1720D01*
X1752Y2317D01*
X1838Y2240D01*
Y2018D01*
X1838Y2018D01*
X1847Y1972D01*
X1874Y1933D01*
X2110Y1696D01*
X2149Y1670D01*
X2195Y1661D01*
X2195Y1661D01*
X4679D01*
X4679Y1661D01*
X4725Y1670D01*
X4764Y1696D01*
X5199Y2131D01*
X5288Y2053D01*
X5261Y2018D01*
X5211Y1898D01*
X5195Y1770D01*
X5211Y1641D01*
X5261Y1522D01*
X5340Y1419D01*
X5443Y1340D01*
X5562Y1290D01*
X5691Y1273D01*
X5819Y1290D01*
X5939Y1340D01*
X6042Y1419D01*
X6121Y1522D01*
X6170Y1641D01*
X6187Y1770D01*
X6170Y1898D01*
X6121Y2018D01*
X6042Y2121D01*
X5939Y2200D01*
X5819Y2249D01*
X5762Y2257D01*
X5762Y2376D01*
X5801Y2381D01*
X5904Y2424D01*
X5993Y2491D01*
X6061Y2580D01*
X6103Y2683D01*
X6118Y2793D01*
X6103Y2904D01*
X6061Y3007D01*
X6039Y3035D01*
X6097Y3153D01*
X6291D01*
X6321Y3080D01*
X6389Y2991D01*
X6478Y2924D01*
X6580Y2881D01*
X6691Y2866D01*
X6801Y2881D01*
X6904Y2924D01*
X6993Y2991D01*
X7061Y3080D01*
X7103Y3183D01*
X7118Y3293D01*
X7103Y3404D01*
X7061Y3507D01*
X6993Y3595D01*
X6904Y3663D01*
X6801Y3706D01*
X6691Y3720D01*
X6580Y3706D01*
X6478Y3663D01*
X6389Y3595D01*
X6321Y3507D01*
X6291Y3434D01*
X6097D01*
X6039Y3552D01*
X6061Y3580D01*
X6103Y3683D01*
X6118Y3793D01*
X6103Y3904D01*
X6061Y4007D01*
X6039Y4035D01*
X6097Y4153D01*
X6291D01*
X6321Y4080D01*
X6389Y3991D01*
X6478Y3924D01*
X6580Y3881D01*
X6691Y3866D01*
X6801Y3881D01*
X6904Y3924D01*
X6993Y3991D01*
X7061Y4080D01*
X7103Y4183D01*
X7118Y4293D01*
X7103Y4404D01*
X7061Y4507D01*
X6993Y4595D01*
X6904Y4663D01*
X6908Y4789D01*
X6979Y4818D01*
X7098Y4910D01*
X7190Y5029D01*
X7247Y5168D01*
X7267Y5317D01*
X7247Y5466D01*
X7190Y5605D01*
X7098Y5724D01*
X6979Y5816D01*
X6840Y5873D01*
X6691Y5893D01*
X6542Y5873D01*
X6403Y5816D01*
X6284Y5724D01*
X6192Y5605D01*
X6135Y5466D01*
X6115Y5317D01*
X6129Y5210D01*
X6135Y5168D01*
X6148Y5130D01*
X6158Y5103D01*
X6142Y5095D01*
X6142Y5095D01*
X6142Y5095D01*
X6119Y5081D01*
X6072Y5054D01*
X6058Y5046D01*
X6057Y5047D01*
X6008Y5110D01*
X5915Y5182D01*
X5807Y5226D01*
X5741Y5235D01*
Y4793D01*
X5691D01*
Y4743D01*
X5249D01*
X5258Y4677D01*
X5260Y4673D01*
X5160Y4606D01*
X3810Y5956D01*
X3764Y5986D01*
X3711Y5997D01*
D02*
G37*
G36*
X5641Y5235D02*
X5575Y5226D01*
X5467Y5182D01*
X5374Y5110D01*
X5303Y5017D01*
X5258Y4909D01*
X5249Y4843D01*
X5641D01*
Y5235D01*
D02*
G37*
%LPD*%
G36*
X5343Y3035D02*
X5321Y3007D01*
X5279Y2904D01*
X5264Y2793D01*
X5279Y2683D01*
X5317Y2590D01*
X4629Y1902D01*
X2245D01*
X2079Y2068D01*
Y2288D01*
X2185Y2317D01*
X2197Y2317D01*
X3287D01*
Y2699D01*
X3287Y2770D01*
Y2785D01*
X3294Y2822D01*
X3399Y2903D01*
X4323D01*
X4377Y2914D01*
X4422Y2944D01*
X4631Y3153D01*
X5284D01*
X5343Y3035D01*
D02*
G37*
G36*
X5174Y4194D02*
X5220Y4164D01*
X5227Y4042D01*
X5216Y4024D01*
X4718D01*
X3480Y5262D01*
X3405Y5312D01*
X3317Y5329D01*
X2215D01*
X2141Y5315D01*
X2126Y5312D01*
X2051Y5262D01*
X1564Y4774D01*
X1201D01*
X1178Y4770D01*
X662D01*
Y5040D01*
X1338Y5716D01*
X3652D01*
X5174Y4194D01*
D02*
G37*
G36*
X4459Y3630D02*
X4534Y3580D01*
X4622Y3562D01*
X5216D01*
X5223Y3552D01*
X5157Y3434D01*
X4573D01*
X4519Y3423D01*
X4473Y3393D01*
X4265Y3184D01*
X3399D01*
X3294Y3265D01*
X3287Y3302D01*
Y3317D01*
X3287Y3388D01*
Y3699D01*
X3287Y3770D01*
Y3793D01*
Y3817D01*
X3287Y3888D01*
Y4178D01*
Y4186D01*
X3309Y4296D01*
Y4309D01*
X3309Y4379D01*
Y4493D01*
X2736D01*
Y4593D01*
X3309D01*
Y4626D01*
X3418Y4671D01*
X4459Y3630D01*
D02*
G37*
D10*
X2736Y3543D02*
D03*
Y4043D02*
D03*
X1201Y3543D02*
D03*
Y4043D02*
D03*
X2736Y4543D02*
D03*
X1201D02*
D03*
Y3043D02*
D03*
Y2543D02*
D03*
X2736Y3043D02*
D03*
Y2543D02*
D03*
D11*
X512Y2923D02*
X632Y3043D01*
X512Y1850D02*
Y2923D01*
Y1850D02*
X1407Y955D01*
X632Y3043D02*
X1201D01*
X522Y5098D02*
X1280Y5856D01*
X522Y4154D02*
Y5098D01*
Y4154D02*
X632Y4043D01*
X1201D01*
X5274Y4293D02*
X6691D01*
X3711Y5856D02*
X5274Y4293D01*
X1280Y5856D02*
X3711D01*
X4573Y3293D02*
X6691D01*
X4323Y3043D02*
X4573Y3293D01*
X2736Y3043D02*
X4323D01*
X1407Y955D02*
X6319D01*
X6691Y1327D01*
Y2293D01*
D12*
X3317Y5098D02*
X4622Y3793D01*
X2215Y5098D02*
X3317D01*
X3343Y4543D02*
X3904Y3983D01*
X2736Y4543D02*
X3343D01*
X4622Y3793D02*
X5691D01*
X1659Y4543D02*
X2215Y5098D01*
X1201Y4543D02*
X1659D01*
D13*
X4679Y1781D02*
X5691Y2793D01*
X2195Y1781D02*
X4679D01*
X1959Y2018D02*
X2195Y1781D01*
X1959Y2018D02*
Y3356D01*
X1772Y3543D02*
X1959Y3356D01*
X1201Y3543D02*
X1772D01*
D14*
X6691Y4293D02*
D03*
X5691Y4793D02*
D03*
X6691Y3293D02*
D03*
Y2293D02*
D03*
X5691Y3793D02*
D03*
Y2793D02*
D03*
D15*
X6691Y5317D02*
D03*
D16*
X5691Y1770D02*
D03*
D17*
X4045Y2333D02*
D03*
X2451Y2087D02*
D03*
X4892Y2815D02*
D03*
X4734Y4331D02*
D03*
X3917Y5108D02*
D03*
X2648Y5522D02*
D03*
X1270Y5089D02*
D03*
X5089Y5600D02*
D03*
X4764Y1388D02*
D03*
X3140D02*
D03*
X1772Y1447D02*
D03*
X837Y2067D02*
D03*
X7480Y5118D02*
D03*
Y3543D02*
D03*
Y1969D02*
D03*
X1969Y394D02*
D03*
X3543D02*
D03*
X5118D02*
D03*
X6693D02*
D03*
Y6693D02*
D03*
X5118D02*
D03*
X3543D02*
D03*
X1969D02*
D03*
X394Y3543D02*
D03*
X7480Y394D02*
D03*
Y6693D02*
D03*
X394D02*
D03*
Y394D02*
D03*
X4360Y3494D02*
D03*
X3455Y3356D02*
D03*
X3553Y4213D02*
D03*
M02*
