G04*
G04 #@! TF.GenerationSoftware,Altium Limited,CircuitStudio,1.5.2 (30)*
G04*
G04 Layer_Color=32896*
%FSLAX24Y24*%
%MOIN*%
G70*
G01*
G75*
%ADD13C,0.0079*%
D13*
X3524Y4980D02*
Y5374D01*
X3392Y5243D01*
X3261Y5374D01*
Y4980D01*
X3130D02*
X2999D01*
X3064D01*
Y5243D01*
X3130D01*
X2802Y4980D02*
Y5243D01*
X2605D01*
X2540Y5177D01*
Y4980D01*
X2409D02*
X2277D01*
X2343D01*
Y5243D01*
X2409D01*
X4462Y5958D02*
X4528Y6023D01*
X4659D01*
X4724Y5958D01*
Y5892D01*
X4659Y5827D01*
X4528D01*
X4462Y5761D01*
Y5696D01*
X4528Y5630D01*
X4659D01*
X4724Y5696D01*
X4331Y5630D02*
X4200D01*
X4265D01*
Y5892D01*
X4331D01*
X4003Y5630D02*
Y5892D01*
X3937D01*
X3872Y5827D01*
Y5630D01*
Y5827D01*
X3806Y5892D01*
X3740Y5827D01*
Y5630D01*
X3609Y5499D02*
Y5892D01*
X3413D01*
X3347Y5827D01*
Y5696D01*
X3413Y5630D01*
X3609D01*
X3216D02*
X3085D01*
X3150D01*
Y6023D01*
X3216D01*
X2888Y5630D02*
X2757D01*
X2822D01*
Y5892D01*
X2888D01*
X2297D02*
X2494D01*
X2560Y5827D01*
Y5696D01*
X2494Y5630D01*
X2297D01*
X2166D02*
X2035D01*
X2101D01*
Y5892D01*
X2166D01*
X1773Y5958D02*
Y5892D01*
X1838D01*
X1707D01*
X1773D01*
Y5696D01*
X1707Y5630D01*
X1510Y5892D02*
Y5696D01*
X1445Y5630D01*
X1248D01*
Y5564D01*
X1313Y5499D01*
X1379D01*
X1248Y5630D02*
Y5892D01*
X4708Y6647D02*
X4774Y6712D01*
X4905D01*
X4970Y6647D01*
Y6384D01*
X4905Y6319D01*
X4774D01*
X4708Y6384D01*
X4511Y6581D02*
X4380D01*
X4315Y6516D01*
Y6319D01*
X4511D01*
X4577Y6384D01*
X4511Y6450D01*
X4315D01*
X4183Y6712D02*
Y6319D01*
X3987D01*
X3921Y6384D01*
Y6450D01*
Y6516D01*
X3987Y6581D01*
X4183D01*
X3790Y6319D02*
X3659D01*
X3724D01*
Y6712D01*
X3790D01*
X3265Y6319D02*
X3396D01*
X3462Y6384D01*
Y6516D01*
X3396Y6581D01*
X3265D01*
X3199Y6516D01*
Y6450D01*
X3462D01*
X2675Y6319D02*
Y6712D01*
X2478D01*
X2412Y6647D01*
Y6516D01*
X2478Y6450D01*
X2675D01*
X2281Y6319D02*
X2150D01*
X2215D01*
Y6712D01*
X2281Y6647D01*
X1953Y6581D02*
X1887D01*
Y6516D01*
X1953D01*
Y6581D01*
Y6384D02*
X1887D01*
Y6319D01*
X1953D01*
Y6384D01*
X4108Y1982D02*
X4173Y2047D01*
X4304D01*
X4370Y1982D01*
Y1719D01*
X4304Y1654D01*
X4173D01*
X4108Y1719D01*
X3911Y1916D02*
X3780D01*
X3714Y1850D01*
Y1654D01*
X3911D01*
X3977Y1719D01*
X3911Y1785D01*
X3714D01*
X3583Y2047D02*
Y1654D01*
X3386D01*
X3321Y1719D01*
Y1785D01*
Y1850D01*
X3386Y1916D01*
X3583D01*
X3189Y1654D02*
X3058D01*
X3124D01*
Y2047D01*
X3189D01*
X2665Y1654D02*
X2796D01*
X2861Y1719D01*
Y1850D01*
X2796Y1916D01*
X2665D01*
X2599Y1850D01*
Y1785D01*
X2861D01*
X2074Y2047D02*
X1812Y1654D01*
Y2047D02*
X2074Y1654D01*
X1681D02*
X1549D01*
X1615D01*
Y2047D01*
X1681Y1982D01*
X1353Y1916D02*
X1287D01*
Y1850D01*
X1353D01*
Y1916D01*
Y1719D02*
X1287D01*
Y1654D01*
X1353D01*
Y1719D01*
X5020Y659D02*
Y1053D01*
X5217Y856D01*
X4954D01*
X4823Y725D02*
X4757Y659D01*
X4626D01*
X4561Y725D01*
Y987D01*
X4626Y1053D01*
X4757D01*
X4823Y987D01*
Y922D01*
X4757Y856D01*
X4561D01*
X4429Y987D02*
X4364Y1053D01*
X4233D01*
X4167Y987D01*
Y725D01*
X4233Y659D01*
X4364D01*
X4429Y725D01*
Y987D01*
X4036Y659D02*
X3905D01*
X3970D01*
Y1053D01*
X4036Y987D01*
X3708D02*
X3642Y1053D01*
X3511D01*
X3445Y987D01*
Y725D01*
X3511Y659D01*
X3642D01*
X3708Y725D01*
Y987D01*
X3314Y1053D02*
X3052D01*
Y987D01*
X3314Y725D01*
Y659D01*
X2658Y1053D02*
X2790Y987D01*
X2921Y856D01*
Y725D01*
X2855Y659D01*
X2724D01*
X2658Y725D01*
Y791D01*
X2724Y856D01*
X2921D01*
X2527Y1053D02*
X2265D01*
Y987D01*
X2527Y725D01*
Y659D01*
X2134Y987D02*
X2068Y1053D01*
X1937D01*
X1871Y987D01*
Y725D01*
X1937Y659D01*
X2068D01*
X2134Y725D01*
Y987D01*
X1478Y1053D02*
X1609Y987D01*
X1740Y856D01*
Y725D01*
X1674Y659D01*
X1543D01*
X1478Y725D01*
Y791D01*
X1543Y856D01*
X1740D01*
X1346Y659D02*
X1215D01*
X1281D01*
Y1053D01*
X1346Y987D01*
X756Y659D02*
X1018D01*
X756Y922D01*
Y987D01*
X822Y1053D01*
X953D01*
X1018Y987D01*
X362D02*
X428Y1053D01*
X559D01*
X625Y987D01*
Y922D01*
X559Y856D01*
X428D01*
X362Y791D01*
Y725D01*
X428Y659D01*
X559D01*
X625Y725D01*
X6618Y1732D02*
X6749Y1667D01*
X6880Y1535D01*
Y1404D01*
X6814Y1339D01*
X6683D01*
X6618Y1404D01*
Y1470D01*
X6683Y1535D01*
X6880D01*
X5758Y5384D02*
X5627D01*
X5692D01*
Y5777D01*
X5758Y5712D01*
X7195Y2392D02*
X7589D01*
Y2195D01*
X7523Y2129D01*
X7261D01*
X7195Y2195D01*
Y2392D01*
X7261Y3045D02*
X7195Y3110D01*
Y3241D01*
X7261Y3307D01*
X7523D01*
X7589Y3241D01*
Y3110D01*
X7523Y3045D01*
X5197Y3012D02*
X4934D01*
X5066D01*
Y2618D01*
X4803Y3012D02*
X4541Y2618D01*
Y3012D02*
X4803Y2618D01*
X5157Y4065D02*
Y3802D01*
X5026Y3671D01*
X4895Y3802D01*
Y4065D01*
X4502Y3934D02*
X4698D01*
X4764Y3868D01*
Y3737D01*
X4698Y3671D01*
X4502D01*
X4108Y3934D02*
X4305D01*
X4370Y3868D01*
Y3737D01*
X4305Y3671D01*
X4108D01*
X4866Y4993D02*
X4931Y5059D01*
X5062D01*
X5128Y4993D01*
Y4731D01*
X5062Y4665D01*
X4931D01*
X4866Y4731D01*
Y4862D01*
X4997D01*
X4734Y4665D02*
Y5059D01*
X4472Y4665D01*
Y5059D01*
X4341D02*
Y4665D01*
X4144D01*
X4078Y4731D01*
Y4993D01*
X4144Y5059D01*
X4341D01*
X7579Y4793D02*
X7185D01*
Y4597D01*
X7251Y4531D01*
X7382D01*
X7448Y4597D01*
Y4793D01*
Y4662D02*
X7579Y4531D01*
X7251Y4137D02*
X7185Y4203D01*
Y4334D01*
X7251Y4400D01*
X7316D01*
X7382Y4334D01*
Y4203D01*
X7448Y4137D01*
X7513D01*
X7579Y4203D01*
Y4334D01*
X7513Y4400D01*
X7185Y4006D02*
Y3744D01*
Y3875D01*
X7579D01*
M02*
