M48
;Layer_Color=9474304
;FILE_FORMAT=2:4
INCH
;TYPE=PLATED
T1F00S00C0.0118
T2F00S00C0.0551
%
T01
X000394Y000394
X001969
X001772Y001447
X002451Y002087
X003140Y001388
X000837Y002067
X000394Y003543
X003455Y003356
X004360Y003494
X004892Y002815
X004045Y002333
X004764Y001388
X005118Y000394
X003543
X006693
X007480
Y001969
Y003543
Y005118
Y006693
X006693Y006693
X005118
X005089Y005600
X004734Y004331
X003553Y004213
X003917Y005108
X003543Y006693
X001969
X000394Y006693
X001270Y005089
X002648Y005522
T02
X005691Y002793
X006691Y003293
Y002293
Y004293
X005691Y004793
Y003793
M30
