G04*
G04 #@! TF.GenerationSoftware,Altium Limited,CircuitStudio,1.5.2 (30)*
G04*
G04 Layer_Physical_Order=2*
G04 Layer_Color=16711680*
%FSLAX24Y24*%
%MOIN*%
G70*
G01*
G75*
%ADD15C,0.0276*%
G36*
X9248Y201D02*
X201D01*
Y6886D01*
X9248D01*
Y201D01*
D02*
G37*
D15*
X2047Y3738D02*
D03*
X1969Y4390D02*
D03*
X2067Y2598D02*
D03*
X7165Y6024D02*
D03*
X5531D02*
D03*
X6073Y5502D02*
D03*
X3435Y3120D02*
D03*
X4783Y3848D02*
D03*
X5719D02*
D03*
X4636Y4764D02*
D03*
X5896D02*
D03*
X4006Y1880D02*
D03*
X4390Y3061D02*
D03*
X5728Y2835D02*
D03*
X3465Y2480D02*
D03*
X4646Y1850D02*
D03*
X8583Y1624D02*
D03*
X9055Y1073D02*
D03*
X9104Y3632D02*
D03*
X8268Y2835D02*
D03*
X7352Y2874D02*
D03*
X6467Y2520D02*
D03*
X6457Y3839D02*
D03*
X6467Y4823D02*
D03*
X7756D02*
D03*
X8238Y4016D02*
D03*
X8376Y4882D02*
D03*
X8268Y5827D02*
D03*
X4400Y5689D02*
D03*
X3474Y4734D02*
D03*
X2657Y5246D02*
D03*
X9055Y2756D02*
D03*
Y1969D02*
D03*
X8268Y394D02*
D03*
X3543D02*
D03*
X1181D02*
D03*
X1969D02*
D03*
X2756D02*
D03*
Y1181D02*
D03*
X1969D02*
D03*
X1181D02*
D03*
X394D02*
D03*
Y3543D02*
D03*
Y4331D02*
D03*
X1181Y5118D02*
D03*
X394D02*
D03*
Y5906D02*
D03*
X1181D02*
D03*
X1969D02*
D03*
X2756D02*
D03*
X3543Y6693D02*
D03*
X2756D02*
D03*
X1969D02*
D03*
X1181D02*
D03*
X5669Y1850D02*
D03*
X3976Y3819D02*
D03*
X9055Y394D02*
D03*
Y6693D02*
D03*
X394D02*
D03*
Y394D02*
D03*
M02*
