G04*
G04 #@! TF.GenerationSoftware,Altium Limited,CircuitStudio,1.5.2 (30)*
G04*
G04 Layer_Physical_Order=1*
G04 Layer_Color=255*
%FSLAX24Y24*%
%MOIN*%
G70*
G01*
G75*
%ADD10R,0.0945X0.0295*%
%ADD11R,0.1220X0.0394*%
%ADD12C,0.0079*%
%ADD13C,0.0394*%
%ADD14C,0.0100*%
%ADD15C,0.0276*%
G36*
X4547Y3071D02*
X5884D01*
Y2622D01*
X4547D01*
Y2071D01*
X5790D01*
X5844Y2017D01*
Y1622D01*
X4547D01*
Y1331D01*
X4327D01*
X3287Y2371D01*
Y2573D01*
X3287D01*
Y2597D01*
X3343Y2715D01*
X3654D01*
X3704Y2725D01*
X3746Y2754D01*
X4208Y3215D01*
X4547D01*
Y3071D01*
D02*
G37*
G36*
X2164Y4396D02*
X2736D01*
Y4296D01*
X2164D01*
Y4099D01*
X2164Y4099D01*
X2164Y4099D01*
X2164Y4099D01*
X2185Y3990D01*
Y3620D01*
X2185Y3620D01*
Y3620D01*
Y3573D01*
X2185D01*
X2185Y3502D01*
Y3120D01*
X2185D01*
Y3073D01*
X2185D01*
Y2620D01*
X2185D01*
Y2573D01*
X2185D01*
Y2244D01*
X2067Y2219D01*
X1922Y2364D01*
Y3622D01*
X1922Y3622D01*
X1912Y3668D01*
X1886Y3707D01*
X1886Y3707D01*
X1752Y3842D01*
Y4073D01*
X1752Y4073D01*
Y4073D01*
Y4120D01*
X1752D01*
X1752Y4191D01*
Y4420D01*
X1873Y4541D01*
X2164D01*
Y4396D01*
D02*
G37*
G36*
X9248Y6054D02*
X9130Y6030D01*
X9119Y6057D01*
X9075Y6115D01*
X8544Y6645D01*
X8486Y6690D01*
X8419Y6717D01*
X8348Y6727D01*
X4474D01*
X4402Y6717D01*
X4335Y6690D01*
X4277Y6645D01*
X2729Y5097D01*
X1758D01*
X1686Y5087D01*
X1619Y5060D01*
X1561Y5015D01*
X1166Y4620D01*
X1129Y4615D01*
X1062Y4587D01*
X1043Y4573D01*
X650D01*
Y4191D01*
X650Y4120D01*
X650Y4120D01*
Y4073D01*
X650D01*
X650Y4073D01*
Y3691D01*
X650Y3620D01*
X650Y3620D01*
Y3573D01*
X650D01*
X650Y3573D01*
Y3445D01*
X583Y3359D01*
X537Y3349D01*
X498Y3323D01*
X368Y3193D01*
X342Y3154D01*
X332Y3108D01*
X332Y3108D01*
Y2085D01*
X332Y2085D01*
X342Y2039D01*
X368Y2000D01*
X878Y1489D01*
X917Y1463D01*
X963Y1454D01*
X2913D01*
X3935Y431D01*
X3974Y405D01*
X4020Y396D01*
X4020Y396D01*
X7839D01*
X7839Y396D01*
X7885Y405D01*
X7925Y431D01*
X8402Y909D01*
X8402Y909D01*
X8418Y932D01*
X8428Y948D01*
X8437Y994D01*
Y1693D01*
X8437Y1693D01*
X8428Y1739D01*
X8402Y1778D01*
X8176Y2004D01*
X8173Y2006D01*
X8137Y2031D01*
X8080Y2109D01*
X8072Y2155D01*
Y2158D01*
Y2296D01*
X7362D01*
X6652D01*
Y2176D01*
X6534Y2127D01*
X6282Y2379D01*
Y4924D01*
X6555Y5198D01*
X6673Y5157D01*
Y5071D01*
X7970D01*
Y4705D01*
X7887Y4622D01*
X6673D01*
Y4071D01*
X8051D01*
Y4446D01*
X8176Y4570D01*
X8176Y4570D01*
X8202Y4609D01*
X8211Y4656D01*
X8211Y4656D01*
Y5592D01*
X8202Y5638D01*
X8191Y5654D01*
X8176Y5677D01*
X8176Y5677D01*
X8107Y5747D01*
X8067Y5773D01*
X8021Y5782D01*
X8021Y5782D01*
X6626D01*
X6580Y5773D01*
X6541Y5747D01*
X6541Y5747D01*
X6043Y5249D01*
X5925Y5298D01*
Y5622D01*
X4547D01*
Y5331D01*
X4442D01*
X4392Y5321D01*
X4349Y5292D01*
X3418Y4361D01*
X3309Y4406D01*
Y4594D01*
X3179D01*
X3130Y4712D01*
X4589Y6171D01*
X8232D01*
X8600Y5803D01*
Y4112D01*
X8112Y3624D01*
X7362D01*
X7344Y3622D01*
X6673D01*
Y3071D01*
X7344D01*
X7362Y3068D01*
X8227D01*
X8299Y3078D01*
X8366Y3106D01*
X8424Y3150D01*
X9075Y3801D01*
X9119Y3858D01*
X9130Y3886D01*
X9248Y3862D01*
Y201D01*
X201D01*
Y6886D01*
X9248D01*
Y6054D01*
D02*
G37*
G36*
X5996Y4911D02*
X6041Y4874D01*
Y4628D01*
X5925Y4622D01*
Y4622D01*
X4547D01*
Y4071D01*
X5759D01*
X5884Y3946D01*
Y3622D01*
X4547D01*
Y3478D01*
X4154D01*
X4103Y3468D01*
X4061Y3439D01*
X3599Y2978D01*
X3343D01*
X3287Y3073D01*
Y3120D01*
X3287D01*
Y3383D01*
X3412Y3507D01*
X3438Y3546D01*
X3447Y3593D01*
X3447Y3593D01*
Y3797D01*
X4561Y4911D01*
X5996D01*
X5996Y4911D01*
D02*
G37*
%LPC*%
G36*
X8072Y2643D02*
X7412D01*
Y2396D01*
X8072D01*
Y2643D01*
D02*
G37*
G36*
X7312D02*
X6652D01*
Y2396D01*
X7312D01*
Y2643D01*
D02*
G37*
%LPD*%
D10*
X2736Y2346D02*
D03*
Y2846D02*
D03*
X1201Y2346D02*
D03*
Y2846D02*
D03*
Y4346D02*
D03*
X2736D02*
D03*
X1201Y3846D02*
D03*
Y3346D02*
D03*
X2736Y3846D02*
D03*
Y3346D02*
D03*
D11*
X5236Y5346D02*
D03*
Y4346D02*
D03*
X7362Y5346D02*
D03*
Y4346D02*
D03*
Y1346D02*
D03*
X5236D02*
D03*
X7362Y2346D02*
D03*
X5236D02*
D03*
X7362Y3346D02*
D03*
X5236D02*
D03*
D12*
X2035Y2081D02*
X3154D01*
X1801Y2315D02*
X2035Y2081D01*
X1801Y2315D02*
Y3622D01*
X1577Y3846D02*
X1801Y3622D01*
X6161Y2329D02*
X6571Y1919D01*
X6004Y2264D02*
X6506Y1762D01*
X5965Y1101D02*
Y2067D01*
X5685Y2346D02*
X5965Y2067D01*
X6161Y2329D02*
Y4974D01*
X6571Y1919D02*
X8091D01*
X6004Y2264D02*
Y3996D01*
X6506Y1762D02*
X8025D01*
X3327Y3593D02*
Y3847D01*
X3091Y3356D02*
X3327Y3593D01*
X2815Y3356D02*
X3091D01*
X2736Y3435D02*
X2815Y3356D01*
X3327Y3847D02*
X4511Y5031D01*
X5996D01*
X2736Y3346D02*
Y3435D01*
X6534Y5346D02*
X7362D01*
X6161Y4974D02*
X6534Y5346D01*
X5996Y5031D02*
X6626Y5661D01*
X5654Y4346D02*
X6004Y3996D01*
X5236Y4346D02*
X5654D01*
X5236Y2346D02*
X5685D01*
X5895Y1032D02*
X5965Y1101D01*
X4203Y1032D02*
X5895D01*
X8159Y1059D02*
Y1628D01*
X8025Y1762D02*
X8159Y1628D01*
X8317Y994D02*
Y1693D01*
X8091Y1919D02*
X8317Y1693D01*
X7774Y674D02*
X8159Y1059D01*
X4085Y674D02*
X7774D01*
X7839Y517D02*
X8317Y994D01*
X4020Y517D02*
X7839D01*
X2962Y1574D02*
X4020Y517D01*
X963Y1574D02*
X2962D01*
X453Y2085D02*
X963Y1574D01*
X453Y3108D02*
X583Y3238D01*
X758D01*
X866Y3346D01*
X1201D01*
X453Y2085D02*
Y3108D01*
X829Y2846D02*
X1201D01*
X610Y2628D02*
X829Y2846D01*
X610Y2150D02*
Y2628D01*
Y2150D02*
X1029Y1732D01*
X3028D01*
X4085Y674D01*
X3154Y2081D02*
X4203Y1032D01*
X1201Y3846D02*
X1577D01*
X8091Y4656D02*
Y5592D01*
X8021Y5661D02*
X8091Y5592D01*
X6626Y5661D02*
X8021D01*
X7782Y4346D02*
X8091Y4656D01*
X7362Y4346D02*
X7782D01*
D13*
X1758Y4819D02*
X2844D01*
X1285Y4346D02*
X1758Y4819D01*
X1201Y4346D02*
X1285D01*
X6591Y2346D02*
X7362D01*
X6476Y2461D02*
X6591Y2346D01*
X6476Y2461D02*
Y3657D01*
X3039Y4346D02*
X4669Y5976D01*
X2736Y4346D02*
X3039D01*
X4669Y5976D02*
X8152D01*
X2844Y4819D02*
X4474Y6449D01*
X8348D01*
X8227Y3346D02*
X8878Y3997D01*
X8152Y5976D02*
X8406Y5723D01*
Y4193D02*
Y5723D01*
X8087Y3874D02*
X8406Y4193D01*
X8087Y3874D02*
X8087D01*
X8878Y3997D02*
Y5918D01*
X8348Y6449D02*
X8878Y5918D01*
X8051Y3839D02*
X8087Y3874D01*
X7362Y3346D02*
X8227D01*
X6658Y3839D02*
X8051D01*
X6476Y3657D02*
X6658Y3839D01*
D14*
X6927Y1346D02*
X7362D01*
X6423Y842D02*
X6927Y1346D01*
X4155Y842D02*
X6423D01*
X2756Y3866D02*
X3069D01*
X2736Y3846D02*
X2756Y3866D01*
X3069D02*
X3089Y3846D01*
X4442Y5200D02*
X5089D01*
X3089Y3846D02*
X4442Y5200D01*
X5089D02*
X5236Y5346D01*
X3097Y1900D02*
X4155Y842D01*
X1978Y1900D02*
X3097D01*
X1532Y2346D02*
X1978Y1900D01*
X4273Y1200D02*
X5089D01*
X3097Y2375D02*
X4273Y1200D01*
X2765Y2375D02*
X3097D01*
X4154Y3346D02*
X5236D01*
X3654Y2846D02*
X4154Y3346D01*
X2736Y2846D02*
X3654D01*
X5089Y1200D02*
X5236Y1346D01*
X2736Y2346D02*
X2765Y2375D01*
X1201Y2346D02*
X1532D01*
D15*
X2047Y3738D02*
D03*
X1969Y4390D02*
D03*
X2067Y2598D02*
D03*
X7165Y6024D02*
D03*
X5531D02*
D03*
X6073Y5502D02*
D03*
X3435Y3120D02*
D03*
X4783Y3848D02*
D03*
X5719D02*
D03*
X4636Y4764D02*
D03*
X5896D02*
D03*
X4006Y1880D02*
D03*
X4390Y3061D02*
D03*
X5728Y2835D02*
D03*
X3465Y2480D02*
D03*
X4646Y1850D02*
D03*
X8583Y1624D02*
D03*
X9055Y1073D02*
D03*
X9104Y3632D02*
D03*
X8268Y2835D02*
D03*
X7352Y2874D02*
D03*
X6467Y2520D02*
D03*
X6457Y3839D02*
D03*
X6467Y4823D02*
D03*
X7756D02*
D03*
X8238Y4016D02*
D03*
X8376Y4882D02*
D03*
X8268Y5827D02*
D03*
X4400Y5689D02*
D03*
X3474Y4734D02*
D03*
X2657Y5246D02*
D03*
X9055Y2756D02*
D03*
Y1969D02*
D03*
X8268Y394D02*
D03*
X3543D02*
D03*
X1181D02*
D03*
X1969D02*
D03*
X2756D02*
D03*
Y1181D02*
D03*
X1969D02*
D03*
X1181D02*
D03*
X394D02*
D03*
Y3543D02*
D03*
Y4331D02*
D03*
X1181Y5118D02*
D03*
X394D02*
D03*
Y5906D02*
D03*
X1181D02*
D03*
X1969D02*
D03*
X2756D02*
D03*
X3543Y6693D02*
D03*
X2756D02*
D03*
X1969D02*
D03*
X1181D02*
D03*
X5669Y1850D02*
D03*
X3976Y3819D02*
D03*
X9055Y394D02*
D03*
Y6693D02*
D03*
X394D02*
D03*
Y394D02*
D03*
M02*
