M48
;Layer_Color=9474304
;FILE_FORMAT=2:4
INCH
;TYPE=PLATED
T1F00S00C0.0118
%
T01
X000394Y000394
X001181
X001969
X002756
Y001181
X001969
X001181
X000394
Y003543
X002067Y002598
X003465Y002480
X003435Y003120
X004390Y003061
X004646Y001850
X004006Y001880
X005669Y001850
X005728Y002835
X006467Y002520
X007352Y002874
X008268Y002835
X009055Y002756
Y001969
X008583Y001624
X009055Y001073
Y000394
X008268
X003543
X003976Y003819
X004783Y003848
X005719
X006457Y003839
X006467Y004823
X005896Y004764
X006073Y005502
X005531Y006024
X004400Y005689
X004636Y004764
X003474Y004734
X003543Y006693
X007165Y006024
X008268Y005827
X008376Y004882
X007756Y004823
X008238Y004016
X009104Y003632
X009055Y006693
X002756
Y005906
X002657Y005246
X001969Y005906
X001181
Y005118
X000394
Y005906
Y006693
X001181
X001969
Y004390
X002047Y003738
X000394Y004331
M30
